<?xml version="1.0" encoding="utf-8"?>
<?xml-stylesheet type="text/xsl" href="rss1.xsl"?>
<rss version="2.0" xmlns:atom="http://www.w3.org/2005/Atom" xmlns:content="http://purl.org/rss/1.0/modules/content/" xmlns:dc="http://purl.org/dc/elements/1.1/" xmlns:media="http://search.yahoo.com/mrss/">
<channel>
 <title>Getty</title>
 <link>http://www.gettyimg.com/</link>
 <atom:link href="http://www.gettyimg.com/" rel="self" type="application/rss+xml" />

 
                <item>
                <title><![CDATA[【Interviews / TV shows / Others】HDTV - Sabrina Carpenter - Interview [Today Show Australia 26 Feb 2024 9HD]_1080i_DD2.0_azamusic]]></title>
                <link><![CDATA[https://sharemania.us/threads/sabrina-carpenter-interview-today-show-australia-26-feb-2024-9hd-_1080i_dd2-0_azamusic.238611/]]></link>
                <description><![CDATA[<article>
<blockquote class="messageText SelectQuoteContainer ugc baseHtml">
<span style="font-size: 18px"><span style="color: #b30059"><b>Sabrina is out here in Australia supporting Taylor Swift's Era's Tour. She did a sit down interview in studio then met fans outside the studio for a Q+A.</b></span></span><br>
<span style="font-size: 15px"><br>
<b>
<div class="ToggleTriggerAnchor bbCodeSpoilerContainer">
<button type="button" class="button bbCodeSpoilerButton ToggleTrigger Tooltip JsOnly" data-target="> .SpoilerTarget"><span>Spoiler: <span class="SpoilerTitle">Media Info</span></span></button>
<div class="SpoilerTarget bbCodeSpoilerText">General<br>
ID : 1 (0x1)<br>
Complete name : \\192.168.1.1\data\aza\Today\Sabrina Carpenter - Interview [Today Show Australia 26 Feb 2024 9HD]_azamusic.ts<br>
Format : MPEG-TS<br>
File size : 755 MiB<br>
Duration : 20 min 49 s<br>
Overall bit rate mode : Variable<br>
Overall bit rate : 5 069 kb/s<br>
Frame rate : 25.000 FPS<br>
<br>
Video<br>
ID : 514 (0x202)<br>
Menu ID : 1152 (0x480)<br>
Format : AVC<br>
Format/Info : Advanced Video Codec<br>
Format profile : High@L4<br>
Format settings : CABAC / 4 Ref Frames<br>
Format settings, CABAC : Yes<br>
Format settings, Reference fra : 4 frames<br>
Codec ID : 27<br>
Duration : 20 min 49 s<br>
Bit rate : 4 366 kb/s<br>
Width : 1 920 pixels<br>
Height : 1 080 pixels<br>
Display aspect ratio : 16:9<br>
Frame rate : 25.000 FPS<br>
Color space : YUV<br>
Chroma subsampling : 4:2:0<br>
Bit depth : 8 bits<br>
Scan type : Interlaced<br>
Scan type, store method : Separated fields<br>
Scan order : Top Field First<br>
Bits/(Pixel*Frame) : 0.084<br>
Stream size : 650 MiB (86%)<br>
Color range : Limited<br>
<br>
Audio<br>
ID : 650 (0x28A)<br>
Menu ID : 1152 (0x480)<br>
Format : AC-3<br>
Format/Info : Audio Coding 3<br>
Commercial name : Dolby Digital<br>
Codec ID : 6<br>
Duration : 20 min 49 s<br>
Bit rate mode : Constant<br>
Bit rate : 448 kb/s<br>
Channel(s) : 6 channels<br>
Channel layout : L R C LFE Ls Rs<br>
Sampling rate : 48.0 kHz<br>
Frame rate : 31.250 FPS (1536 SPF)<br>
Compression mode : Lossy<br>
Delay relative to video : -200 ms<br>
Stream size : 66.7 MiB (9%)<br>
Language : English<br>
Service kind : Complete Main<br>
<br>
Text<br>
ID : 578 (0x242)-801<br>
Menu ID : 1152 (0x480)<br>
Format : Teletext Subtitle<br>
Language : English</div>
</div></b></span><br>
<br>
<div class="bbCodeBlock bbCodeVfcHH HiddenContent">
<div class="attribution type">Hidden Content:</div>
<blockquote>You must reply before you can see the hidden data contained here.</blockquote>
</div><span style="font-size: 15px"><br>
<br>
<b><img src="https://www.aaronsouth.com/azamusic/sc_feb2024.png" class="bbCodeImage LbImage" alt="[​IMG]" data-url="https://www.aaronsouth.com/azamusic/sc_feb2024.png" style=""> </b></span>
<div class="messageTextEndMarker">&nbsp;</div>
</blockquote>
</article>]]></description>
                <author><![CDATA[azamusic]]></author>
                </item>

                
                <item>
                <title><![CDATA[【HD Live Performances】HDTV - Carly Rae Jepsen - Too Much (James Corden, USA, 2019) [1080p59.94] - caladan]]></title>
                <link><![CDATA[https://sharemania.us/threads/carly-rae-jepsen-too-much-james-corden-usa-2019-1080p59-94-caladan.238610/]]></link>
                <description><![CDATA[<article>
<blockquote class="messageText SelectQuoteContainer ugc baseHtml">
Video deinterlaced by me with QTGMC (smooth double fps) + raised audio volume. Awesome quality.<br>
<br>
<img src="https://i.postimg.cc/hGvBKpfh/Carly-Rae-Jepsen-Too-Much-James-Corden-USA-2019-mp4.jpg" class="bbCodeImage LbImage" alt="[​IMG]" data-url="https://i.postimg.cc/hGvBKpfh/Carly-Rae-Jepsen-Too-Much-James-Corden-USA-2019-mp4.jpg" style=""><br>
<br>
<div class="bbCodeBlock bbCodeVfcHH HiddenContent">
<div class="attribution type">Hidden Content:</div>
<blockquote>You must reply before you can see the hidden data contained here.</blockquote>
</div>
<div class="messageTextEndMarker">&nbsp;</div>
</blockquote>
</article>]]></description>
                <author><![CDATA[caladan]]></author>
                </item>

                
                <item>
                <title><![CDATA[【HD Live Performances】HDTV - Gwen Stefani - 2024.02.14 - Jimmy Kimmel Live]]></title>
                <link><![CDATA[https://sharemania.us/threads/gwen-stefani-2024-02-14-jimmy-kimmel-live.238612/]]></link>
                <description><![CDATA[<article>
<blockquote class="messageText SelectQuoteContainer ugc baseHtml">
<img src="https://imgur.com/a/kMPlf1k" class="bbCodeImage LbImage" alt="[​IMG]" data-url="https://imgur.com/a/kMPlf1k" style=""><iframe data-s9e-mediaembed="imgur" allowfullscreen="" loading="lazy" onload="var c=new MessageChannel;c.port1.onmessage=function(e){var d=e.data.split(' ');style.height=d[0]+'px';style.width=d[1]+'px'};contentWindow.postMessage('s9e:init','https://s9e.github.io',[c.port2])" scrolling="no" style="border: 0px; height: 510px; max-width: 100%; width: 540px;" src="https://s9e.github.io/iframe/2/imgur.min.html#a/kMPlf1k"></iframe> <br>
<br>
<div class="bbCodeBlock bbCodeVfcHH HiddenContent">
<div class="attribution type">Hidden Content:</div>
<blockquote>You must either reply or click 'Like' to see the hidden information contained here.</blockquote>
</div>
<div class="messageTextEndMarker">&nbsp;</div>
</blockquote>
</article>]]></description>
                <author><![CDATA[LiveHD]]></author>
                </item>

                </channel></rss>